<svg width="18" height="18" fill="none" xmlns="http://www.w3.org/2000/svg"><g clip-path="url(#a)" fill="#fff"><path d="M11.813 6.75V5.625h-2.25V3.937H8.437v1.688H7.313A1.126 1.126 0 0 0 6.188 6.75v1.687a1.126 1.126 0 0 0 1.125 1.125h3.375v1.688h-4.5v1.125h2.25v1.688h1.124v-1.688h1.126a1.126 1.126 0 0 0 1.124-1.125V9.562a1.126 1.126 0 0 0-1.124-1.125H7.312V6.75h4.5Z"/><path d="M8.875 2.125a6.75 6.75 0 1 1-6.75 6.75 6.77 6.77 0 0 1 6.75-6.75Zm0-1.125a7.875 7.875 0 1 0 7.875 7.875A7.898 7.898 0 0 0 8.875 1Z"/></g><defs><clipPath id="a"><path fill="#fff" d="M0 0h18v18H0z"/></clipPath></defs></svg>