<svg width="16" height="16" viewBox="0 0 16 16" fill="none" xmlns="http://www.w3.org/2000/svg">
<path d="M10.1933 10.86L8.66667 12.3933V4.66665C8.66667 4.48984 8.59643 4.32027 8.47141 4.19524C8.34639 4.07022 8.17682 3.99998 8 3.99998C7.82319 3.99998 7.65362 4.07022 7.5286 4.19524C7.40358 4.32027 7.33334 4.48984 7.33334 4.66665V12.3933L5.80667 10.86C5.68114 10.7344 5.51087 10.6639 5.33334 10.6639C5.1558 10.6639 4.98554 10.7344 4.86 10.86C4.73447 10.9855 4.66394 11.1558 4.66394 11.3333C4.66394 11.5108 4.73447 11.6811 4.86 11.8066L7.52667 14.4733C7.59007 14.534 7.66484 14.5816 7.74667 14.6133C7.82647 14.6486 7.91276 14.6668 8 14.6668C8.08725 14.6668 8.17354 14.6486 8.25334 14.6133C8.33517 14.5816 8.40994 14.534 8.47334 14.4733L11.14 11.8066C11.2655 11.6811 11.3361 11.5108 11.3361 11.3333C11.3361 11.1558 11.2655 10.9855 11.14 10.86C11.0778 10.7978 11.0041 10.7485 10.9228 10.7149C10.8416 10.6812 10.7546 10.6639 10.6667 10.6639C10.4891 10.6639 10.3189 10.7344 10.1933 10.86ZM12.6667 1.33331H3.33334C3.15653 1.33331 2.98696 1.40355 2.86193 1.52858C2.73691 1.6536 2.66667 1.82317 2.66667 1.99998C2.66667 2.17679 2.73691 2.34636 2.86193 2.47138C2.98696 2.59641 3.15653 2.66665 3.33334 2.66665H12.6667C12.8435 2.66665 13.0131 2.59641 13.1381 2.47138C13.2631 2.34636 13.3333 2.17679 13.3333 1.99998C13.3333 1.82317 13.2631 1.6536 13.1381 1.52858C13.0131 1.40355 12.8435 1.33331 12.6667 1.33331Z" fill="white"/>
</svg>
