<svg width="19" height="19" viewBox="0 0 19 19" fill="none" xmlns="http://www.w3.org/2000/svg">
<path d="M16.625 11.875C16.625 12.0325 16.5624 12.1835 16.4511 12.2948C16.3397 12.4062 16.1887 12.4687 16.0312 12.4687H2.96875C2.81128 12.4687 2.66026 12.4062 2.54891 12.2948C2.43756 12.1835 2.375 12.0325 2.375 11.875C2.375 11.7175 2.43756 11.5665 2.54891 11.4551C2.66026 11.3438 2.81128 11.2812 2.96875 11.2812H16.0312C16.1887 11.2812 16.3397 11.3438 16.4511 11.4551C16.5624 11.5665 16.625 11.7175 16.625 11.875ZM2.96875 7.71873H16.0312C16.1887 7.71873 16.3397 7.65618 16.4511 7.54483C16.5624 7.43348 16.625 7.28246 16.625 7.12498C16.625 6.96751 16.5624 6.81649 16.4511 6.70514C16.3397 6.59379 16.1887 6.53123 16.0312 6.53123H2.96875C2.81128 6.53123 2.66026 6.59379 2.54891 6.70514C2.43756 6.81649 2.375 6.96751 2.375 7.12498C2.375 7.28246 2.43756 7.43348 2.54891 7.54483C2.66026 7.65618 2.81128 7.71873 2.96875 7.71873Z" fill="white" fill-opacity="0.5"/>
</svg>
